<?xml version="1.0" encoding="utf-8"?>
<!-- Generator: Adobe Illustrator 22.0.1, SVG Export Plug-In . SVG Version: 6.00 Build 0)  -->
<svg version="1.1" id="Lager_1" xmlns="http://www.w3.org/2000/svg" xmlns:xlink="http://www.w3.org/1999/xlink" x="0px" y="0px"
	 viewBox="0 0 270.2 266.6" style="enable-background:new 0 0 270.2 266.6;" xml:space="preserve">
<style type="text/css">
	.st0{fill:#FFFFFF;}
</style>
<path class="st0" d="M213.8,23.7C196.3,11.8,176,4.3,154.4,1.8C98-4.6,43.8,25.6,19.5,76.8c-2.4,5-0.3,10.9,4.7,13.3
	c5,2.4,10.9,0.2,13.3-4.7c20.7-43.5,66.8-69.1,114.6-63.6c30,3.4,56.8,18.2,75.6,41.8s27.2,53.1,23.8,83
	c-3.4,29.9-18.2,56.8-41.8,75.6s-53.1,27.2-83,23.8c-47.9-5.4-87.1-40.7-97.5-87.7c-1.2-5.4-6.5-8.8-11.9-7.6
	c-5.4,1.2-8.8,6.5-7.6,11.9c4.5,20.2,13.4,38.5,25.7,53.9c21.5,27,53.2,45.2,89,49.3c16.4,1.9,32.7,0.7,48.3-3.3
	c0,0,11.4-2.9,19.1-6.6c10.7-4.6,20.9-10.7,30.3-18.2c27.7-22.1,45.2-53.7,49.2-88.9c4-35.2-6-69.9-28.1-97.7
	c-4.2-5.2-8.7-10.1-13.5-14.6"/>
<path class="st0" d="M27,86.3l13.7-7.7l8.9-4c5-2.2,10.9,0,13.2,5.1c1.1,2.5,1.1,5.3,0.2,7.6c-0.9,2.4-2.7,4.4-5.3,5.5l-30.9,13.8
	c-5,2.2-10.9,0-13.2-5.1l-13.8-31c-2.2-5,0-10.9,5.1-13.2c5-2.2,10.9,0,13.2,5.1l4,8.9L27,86.3z"/>
<path class="st0" d="M9.2,133.7c-1.8-2.2-2.6-5.2-2-8.2l0,0c1.1-5.4,6.4-8.9,11.8-7.8c5.4,1.1,8.9,6.4,7.8,11.8
	c-1.1,5.4-6.4,8.9-11.8,7.8C12.7,136.8,10.7,135.5,9.2,133.7z"/>
</svg>
